# xmcd
#
# Track frame offsets:
#	150
#	17025
#	55820
#	78010
#	112905
#	132760
#	157455
#	197475
#	208810
#	220885
#	227195
#	251385
#	275945
#
# Disc length: 4084 seconds
#
# Revision: 1
# Processed by: cddbd v1.5.1PL2 Copyright (c) Steve Scherf et al.
# Submitted via: EasyCDDAExtractor 8.0.2.1
#
DISCID=b90ff20d
DTITLE=Metallica - Globen Stockholm 28-05-99 Disc 1
DYEAR=1999
DGENRE=Hard Rock
TTITLE0=Breadfan
TTITLE1=Master of Pupptes
TTITLE2=Of Wolf And Man
TTITLE3=The Things That Should Not Be
TTITLE4=Fuel
TTITLE5=The Memory Remains The Same
TTITLE6=Bleedin Me
TTITLE7=James Talks
TTITLE8=Bass Solo
TTITLE9=Guitar Solo
TTITLE10=The Four Horsemen
TTITLE11=For Whom The Bell Tolls
TTITLE12=King Nothing
EXTD=
EXTT0=
EXTT1=
EXTT2=
EXTT3=
EXTT4=
EXTT5=
EXTT6=
EXTT7=
EXTT8=
EXTT9=
EXTT10=
EXTT11=
EXTT12=
PLAYORDER=
